<svg xmlns="http://www.w3.org/2000/svg" width="44" height="44" viewBox="0 0 44 44">
    <g fill="none" fill-rule="evenodd">
        <path fill="#206F8E" d="M43.203 12.809c-.005-.044-.008-.088-.014-.132-.01-.076-.018-.153-.029-.229-.04-.275-.085-.549-.141-.819-.06-.29-.125-.548-.195-.804l-.057-.204a14.194 14.194 0 0 0-.2-.632l-.055-.162a13.502 13.502 0 0 0-1.085-2.32 13.65 13.65 0 0 0-2.844-3.414 13.749 13.749 0 0 0-2.172-1.54c-.701-.499-1.811-.949-3.218-1.33l-.245-.064C30.178.445 26.313 0 22.026 0c-4.414 0-8.382.472-11.165 1.224l-.13.034c-1.348.373-2.412.812-3.092 1.297-.223.13-.4.242-.578.356-.075.047-.15.092-.223.142-.161.107-.317.222-.474.335-.085.062-.171.122-.254.186-.139.106-.273.218-.407.329-.096.08-.193.157-.286.239-.115.101-.227.207-.339.312-.106.1-.213.197-.316.3-.093.093-.182.19-.274.287-.114.12-.229.24-.339.365-.073.084-.143.17-.214.257-.12.143-.24.286-.354.433-.057.073-.11.15-.164.224-.123.166-.244.332-.359.503a17.035 17.035 0 0 0-.474.758c-.353.497-.663 1.142-.946 1.93-.118.3-.227.604-.324.914-.219.726-.366 1.377-.466 2.043C.32 15.07 0 18.358 0 21.958c0 3.481.3 6.673.797 9.233.005.044.008.088.014.132.01.076.018.153.029.228.04.276.086.55.141.82.061.29.125.548.195.804l.057.204c.062.213.129.423.2.632l.055.162c.188.526.407 1.036.655 1.53l.07.135a13.738 13.738 0 0 0 5.377 5.609c.7.499 1.81.949 3.217 1.329l.245.065c2.77.714 6.635 1.159 10.922 1.159 4.414 0 8.382-.472 11.166-1.224l.13-.034c1.347-.373 2.41-.812 3.091-1.297.223-.13.401-.242.579-.356.074-.047.15-.093.222-.142.161-.107.318-.222.474-.335.085-.062.172-.122.254-.186.14-.106.273-.218.407-.329.096-.08.193-.157.286-.24.116-.1.227-.206.34-.31.105-.1.212-.198.315-.3.093-.094.183-.191.274-.288.114-.12.23-.24.339-.365.073-.084.143-.17.215-.257.12-.143.24-.286.353-.433.057-.074.11-.15.165-.224.122-.166.244-.332.358-.503l.074-.116c.169-.262.289-.45.4-.643.353-.496.663-1.141.946-1.93.118-.299.227-.603.324-.913.22-.727.366-1.377.466-2.043.528-2.602.848-5.89.848-9.49 0-3.481-.3-6.673-.797-9.233z"/>
        <path fill="#FFF" fill-rule="nonzero" d="M26.682 14H34v14.824h-5.73c-2.427 0-4.56 1.154-5.769 3.176-1.211-2.022-3.343-3.176-5.77-3.176H11V14h7.318c2.44 0 4.182 2.647 4.182 2.647S24.342 14 26.682 14zm-11.65 11.513h1.817l.995-4.013h.03l.956 4.013h1.81L22.179 19H20.61l-.9 4.1h-.028L18.667 19h-1.454l-1.024 4.1h-.038l-.842-4.1H13.5l1.531 6.513h.001zm8 0h1.808V19h-1.81v6.513h.002zm5.798.106c1.828 0 2.67-.823 2.67-2.442V19.01h-1.608v4.1c0 .842-.296 1.182-1.004 1.182-.709 0-1.044-.34-1.044-1.173v-4.11h-1.808v4.178c0 1.618.938 2.432 2.794 2.432z"/>
    </g>
</svg>
