<?xml version="1.0" encoding="UTF-8"?>
<svg width="32px" height="32px" viewBox="0 0 32 32" version="1.1" xmlns="http://www.w3.org/2000/svg" xmlns:xlink="http://www.w3.org/1999/xlink">
    <!-- Generator: sketchtool 50.2 (55047) - http://www.bohemiancoding.com/sketch -->
    <title>2CD27C37-0A75-494E-8053-62319F26D1E1</title>
    <desc>Created with sketchtool.</desc>
    <defs></defs>
    <g id="Symbols" stroke="none" stroke-width="1" fill="none" fill-rule="evenodd">
        <g id="ThemeCafe/iOS" transform="translate(-20.000000, -173.000000)">
            <g id="02.-ThemeCafe">
                <g id="지역카페" transform="translate(0.000000, 162.000000)">
                    <g id="icon-/-placecafe" transform="translate(20.000000, 11.000000)">
                        <path d="M31.4202914,9.31536853 C31.416395,9.2838627 31.4142302,9.25149369 31.4103338,9.21955627 C31.4034067,9.16431317 31.3973455,9.10863848 31.3891196,9.05339537 C31.3605455,8.85313912 31.327209,8.65417762 31.2865125,8.45780565 C31.2423525,8.24632814 31.1955948,8.0585879 31.1449407,7.87257401 C31.1315195,7.82337312 31.1167995,7.77417223 31.1029454,7.72453975 C31.0583524,7.56960011 31.00943,7.41638681 30.95791,7.26446827 C30.9444888,7.22519388 30.9319335,7.1854879 30.9176464,7.14664509 C30.7812699,6.76425922 30.6219474,6.39309461 30.4414108,6.03401443 C30.4249591,6.00121384 30.4080744,5.96841324 30.3911896,5.93604424 C30.3076319,5.77506238 30.2206107,5.61623845 30.1288271,5.46000405 C29.8876788,5.05301774 29.6530245,4.71163261 29.3988879,4.3862162 C28.9715747,3.84500641 28.5360356,3.38881921 28.060233,2.97665385 C27.5662468,2.54981455 27.0406559,2.17735518 26.4804297,1.85711781 C25.9708576,1.49415335 25.1634219,1.166579 24.1403813,0.88993189 C24.0810683,0.87396318 24.0221882,0.85799447 23.9620094,0.842888934 C21.9479659,0.323690067 19.1368771,0 16.018833,0 C12.8085722,0 9.9230176,0.343543058 7.89858347,0.88993189 C7.86697875,0.898563625 7.83537402,0.906332187 7.80420224,0.914963922 C6.82402284,1.18643199 6.0503565,1.5053746 5.55550444,1.85841257 C5.39358435,1.95249848 5.26413486,2.03449997 5.13511831,2.11736462 C5.08100064,2.15145998 5.02645002,2.18426057 4.97319822,2.22008227 C4.85587109,2.29819947 4.74244044,2.38149572 4.62857684,2.46436037 C4.56666622,2.5092454 4.50388971,2.55283566 4.44327791,2.59901544 C4.3428355,2.67670106 4.24542367,2.75783937 4.14757891,2.83854609 C4.07787534,2.89637872 4.00730589,2.95291658 3.93933408,3.01204397 C3.85577639,3.0858453 3.77481634,3.16266775 3.69342335,3.2390586 C3.61635977,3.31156518 3.53843032,3.3823454 3.46353145,3.45700991 C3.39555964,3.52476903 3.33061843,3.59598085 3.26394545,3.6658979 C3.18125364,3.75351001 3.09769594,3.84069054 3.01760178,3.93132376 C2.96434998,3.99260908 2.91369583,4.05562074 2.86174286,4.11820082 C2.77428869,4.22221323 2.68683452,4.32622564 2.60414271,4.43369074 C2.56301327,4.48677591 2.52448148,4.54201902 2.48508381,4.59639895 C2.39589788,4.71724324 2.30757783,4.83765594 2.22402013,4.96238452 C2.20540365,4.99000607 2.18765305,5.0184908 2.16990245,5.04654393 C2.04738003,5.23687369 1.96079174,5.37368669 1.87896581,5.51395239 C1.62266448,5.87519051 1.397102,6.34432531 1.19102188,6.91747252 C1.10529947,7.13542383 1.02607119,7.35639625 0.95593468,7.58168454 C0.796612233,8.10994673 0.689242758,8.5833974 0.616941539,9.06763774 C0.23292249,10.9597141 0,13.3515679 0,15.9691415 C0,18.501261 0.218202481,20.8223346 0.579708576,22.6846315 C0.583605049,22.7161373 0.585769756,22.7485063 0.589666229,22.7804437 C0.597026234,22.8356868 0.602654472,22.8913615 0.610880359,22.946173 C0.639454494,23.1468609 0.673223925,23.3458224 0.713487479,23.5421943 C0.758080446,23.7536719 0.804405179,23.9414121 0.855059327,24.127426 C0.868913452,24.1766269 0.88320052,24.2258278 0.897054645,24.2754602 C0.942080554,24.4303999 0.990569994,24.5836132 1.04209002,24.7355317 C1.05551121,24.7748061 1.06849945,24.8145121 1.08235358,24.8533549 C1.21873013,25.2357408 1.37848552,25.6064738 1.55858915,25.9659856 C1.57547387,25.9987862 1.59235858,26.0315868 1.6092433,26.0639558 C1.69236805,26.2249376 1.77938928,26.3837615 1.87117287,26.539996 C2.11275418,26.9469823 2.34740844,27.2883674 2.60154506,27.6137838 C3.02842531,28.1549936 3.46439733,28.6107492 3.93976702,29.0233461 C4.4337532,29.4501854 4.95934409,29.8226448 5.51957031,30.1428822 C6.02957531,30.5058467 6.83657814,30.833421 7.85961874,31.1096365 C7.91893172,31.1260368 7.97824469,31.1420055 8.03799061,31.1571111 C10.0524671,31.6763099 12.8635558,32 15.981167,32 C19.1914278,32 22.0769824,31.6564569 24.1018495,31.1096365 C24.1330213,31.1014364 24.164626,31.0936678 24.1962307,31.0850361 C25.1759772,30.813568 25.9496435,30.4946254 26.4444956,30.1415874 C26.6064157,30.0475015 26.7362981,29.9655 26.8653146,29.8826354 C26.9194323,29.84854 26.9739829,29.8153078 27.0272347,29.7799177 C27.1441289,29.7018005 27.2579925,29.6185043 27.3718561,29.5356396 C27.4333338,29.4907546 27.4965432,29.4471643 27.5567221,29.4009846 C27.6575974,29.3232989 27.7545763,29.2421606 27.8524211,29.1614539 C27.9221247,29.1036213 27.9926941,29.0470834 28.0606659,28.9875244 C28.1446566,28.9141547 28.2251837,28.8373323 28.3070096,28.7609414 C28.3836402,28.6884348 28.4615697,28.6176546 28.5364686,28.5429901 C28.6044404,28.475231 28.6698145,28.4040192 28.7360546,28.3341021 C28.8187464,28.24649 28.902737,28.1593095 28.9823982,28.0686762 C29.03565,28.0073909 29.0867371,27.9443793 29.1386901,27.8817992 C29.2261443,27.7777868 29.3131655,27.6737744 29.3958573,27.5663093 C29.4369867,27.5127925 29.4755185,27.457981 29.5153491,27.4036011 C29.6045351,27.2827568 29.6928551,27.1623441 29.7759799,27.0376155 C29.7950293,27.0095623 29.8123469,26.9815092 29.8300975,26.9534561 C29.95262,26.7631263 30.0396412,26.6263133 30.1210342,26.4860476 C30.3773355,26.1248095 30.602898,25.6556747 30.8089781,25.0825275 C30.8947005,24.8650078 30.9739288,24.6436037 31.0440653,24.4183155 C31.2038207,23.8896217 31.3107572,23.4166026 31.3830585,22.9323623 C31.7670775,21.0402859 32,18.6484321 32,16.0308585 C32,13.498739 31.7822305,11.1776654 31.4202914,9.31536853 Z" id="img" fill="#73D3E8"></path>
                        <path d="M13.0245857,13.919133 C13.0245857,12.3594153 14.3182755,11.0944742 15.9122862,11.0944742 C17.5062969,11.0944742 18.7999868,12.3594153 18.7999868,13.919133 C18.7999868,15.4771565 17.5062969,16.741533 15.9122862,16.741533 C14.3182755,16.741533 13.0245857,15.4771565 13.0245857,13.919133 Z M22.4965335,17.6376471 C23.2842529,16.4838503 23.7005348,15.1520856 23.7005348,13.7852406 C23.7000818,9.81860963 20.2461655,6.58994652 16.0013589,6.58823529 C11.7570053,6.58994652 8.30218308,9.81860963 8.29946524,13.7852406 C8.29946524,15.1482353 8.71574709,16.48 9.52747405,17.6693048 L16.000453,25.4117647 L22.4965335,17.6376471 Z" id="img_place" fill="#FFFFFF"></path>
                    </g>
                </g>
            </g>
        </g>
    </g>
</svg>