<svg xmlns="http://www.w3.org/2000/svg" width="32" height="32" viewBox="0 0 32 32">
    <g fill="none" fill-rule="evenodd">
        <path fill="#7958DC" d="M31.42 9.315l-.01-.095-.02-.167a9.66 9.66 0 0 0-.103-.595 9.82 9.82 0 0 0-.142-.585c-.013-.05-.028-.099-.042-.148a10.323 10.323 0 0 0-.145-.46c-.014-.04-.026-.08-.04-.118a9.82 9.82 0 0 0-.79-1.687 9.927 9.927 0 0 0-2.068-2.483 10 10 0 0 0-1.58-1.12c-.51-.363-1.317-.69-2.34-.967l-.178-.047C21.948.323 19.137 0 16.019 0c-3.21 0-6.096.344-8.12.89l-.095.025c-.98.271-1.754.59-2.248.943-.162.094-.292.176-.42.26-.055.033-.11.066-.163.102-.117.078-.23.161-.344.244-.062.045-.125.089-.186.135-.1.078-.198.159-.295.24-.07.057-.14.114-.209.173-.083.074-.164.15-.246.227-.077.073-.155.143-.23.218-.067.068-.132.139-.2.209-.082.088-.165.175-.245.265-.054.062-.104.125-.156.187-.088.104-.175.208-.258.316-.041.053-.08.108-.119.162-.09.121-.177.242-.261.366-.019.028-.036.056-.054.085-.123.19-.21.327-.291.467-.256.361-.482.83-.688 1.403a9.657 9.657 0 0 0-.574 2.15C.233 10.96 0 13.353 0 15.97c0 2.532.218 4.853.58 6.716l.01.095.02.166c.03.2.063.4.103.596.045.212.091.4.142.585l.042.148c.045.155.094.309.145.46.014.04.026.08.04.118.137.383.296.753.477 1.113l.05.098a9.967 9.967 0 0 0 .993 1.55 10 10 0 0 0 2.918 2.53c.51.362 1.317.69 2.34.966l.178.047c2.014.52 4.826.843 7.943.843 3.21 0 6.096-.344 8.12-.89l.095-.025c.98-.271 1.754-.59 2.248-.943.162-.094.292-.177.421-.26.054-.033.109-.067.162-.102.117-.078.231-.161.345-.244.061-.045.125-.089.185-.135.1-.078.198-.159.295-.24.07-.057.14-.114.209-.173.084-.074.164-.15.246-.227.077-.073.155-.143.23-.218.067-.068.133-.139.2-.209.082-.088.166-.175.245-.265.054-.062.105-.125.157-.187.087-.104.174-.208.257-.316.041-.053.08-.108.12-.162.089-.121.177-.242.26-.366.019-.028.036-.056.054-.085.123-.19.21-.327.291-.467.256-.361.482-.83.688-1.403a9.577 9.577 0 0 0 .574-2.15c.384-1.893.617-4.285.617-6.902 0-2.532-.218-4.853-.58-6.716z"/>
        <path fill="#FFF" d="M8 9v13.65h16V11.73h-7.53L15.06 9z"/>
        <path fill="#7958DC" d="M11.467 15.037h9.067v1h-9.067zM11.467 17.75h9.067v1h-9.067z"/>
    </g>
</svg>
